<mxfile host="app.diagrams.net" modified="2021-09-21T07:33:25.311Z" agent="5.0 (Macintosh; Intel Mac OS X 10_15_7) AppleWebKit/605.1.15 (KHTML, like Gecko) Version/14.1.1 Safari/605.1.15" etag="H4HTLGe_s5_7jNFF0QZn" version="15.2.9" type="github">
  <diagram id="OZnmdtayX9LxRl-VlWyn" name="第 1 页">
    <mxGraphModel dx="946" dy="501" grid="1" gridSize="10" guides="1" tooltips="1" connect="1" arrows="1" fold="1" page="1" pageScale="1" pageWidth="827" pageHeight="1169" math="0" shadow="0">
      <root>
        <mxCell id="0" />
        <mxCell id="1" parent="0" />
        <mxCell id="zYgVgm1hGIB6E4Q6BcmA-6" value="binlog" style="edgeStyle=orthogonalEdgeStyle;rounded=0;orthogonalLoop=1;jettySize=auto;html=1;fontSize=16;" edge="1" parent="1" source="zYgVgm1hGIB6E4Q6BcmA-1" target="zYgVgm1hGIB6E4Q6BcmA-2">
          <mxGeometry relative="1" as="geometry" />
        </mxCell>
        <mxCell id="zYgVgm1hGIB6E4Q6BcmA-1" value="数据库" style="rounded=1;whiteSpace=wrap;html=1;fontSize=16;" vertex="1" parent="1">
          <mxGeometry x="60" y="130" width="120" height="60" as="geometry" />
        </mxCell>
        <mxCell id="zYgVgm1hGIB6E4Q6BcmA-7" style="edgeStyle=orthogonalEdgeStyle;rounded=0;orthogonalLoop=1;jettySize=auto;html=1;entryX=0;entryY=0.5;entryDx=0;entryDy=0;fontSize=16;" edge="1" parent="1" source="zYgVgm1hGIB6E4Q6BcmA-2" target="zYgVgm1hGIB6E4Q6BcmA-3">
          <mxGeometry relative="1" as="geometry" />
        </mxCell>
        <mxCell id="zYgVgm1hGIB6E4Q6BcmA-2" value="Canal 中间件" style="rounded=1;whiteSpace=wrap;html=1;fontSize=16;fillColor=#ffe6cc;strokeColor=#d79b00;" vertex="1" parent="1">
          <mxGeometry x="260" y="130" width="120" height="60" as="geometry" />
        </mxCell>
        <mxCell id="zYgVgm1hGIB6E4Q6BcmA-5" value="删除缓存" style="edgeStyle=orthogonalEdgeStyle;rounded=0;orthogonalLoop=1;jettySize=auto;html=1;fontSize=16;" edge="1" parent="1" source="zYgVgm1hGIB6E4Q6BcmA-3" target="zYgVgm1hGIB6E4Q6BcmA-4">
          <mxGeometry relative="1" as="geometry" />
        </mxCell>
        <mxCell id="zYgVgm1hGIB6E4Q6BcmA-3" value="缓存的服务" style="rounded=1;whiteSpace=wrap;html=1;fontSize=16;" vertex="1" parent="1">
          <mxGeometry x="460" y="130" width="120" height="60" as="geometry" />
        </mxCell>
        <mxCell id="zYgVgm1hGIB6E4Q6BcmA-4" value="Reids" style="rounded=1;whiteSpace=wrap;html=1;fontSize=16;" vertex="1" parent="1">
          <mxGeometry x="460" y="290" width="120" height="60" as="geometry" />
        </mxCell>
      </root>
    </mxGraphModel>
  </diagram>
</mxfile>
